<svg width="504" height="565" viewBox="0 0 504 565" fill="none" xmlns="http://www.w3.org/2000/svg">
<path fill-rule="evenodd" clip-rule="evenodd" d="M504 45.5V564.5H307C295.065 564.5 283.619 559.759 275.18 551.32C266.741 542.881 262 531.435 262 519.5V318.5C262 310.544 258.839 302.913 253.213 297.287C247.587 291.661 239.956 288.5 232 288.5H39C36.3478 288.5 33.8043 289.554 31.9289 291.429C30.0536 293.304 29 295.848 29 298.5C29 301.152 30.0536 303.696 31.9289 305.571C33.8043 307.446 36.3478 308.5 39 308.5H226C230.243 308.5 234.313 310.186 237.314 313.186C240.314 316.187 242 320.257 242 324.5V564.5H45C33.0653 564.5 21.6193 559.759 13.1802 551.32C4.74107 542.881 0 531.435 0 519.5V0.5H197C208.935 0.5 220.381 5.24107 228.82 13.6802C237.259 22.1193 242 33.5653 242 45.5V245.5C242 253.456 245.161 261.087 250.787 266.713C256.413 272.339 264.044 275.5 272 275.5H465C467.652 275.5 470.196 274.446 472.071 272.571C473.946 270.696 475 268.152 475 265.5C475 262.848 473.946 260.304 472.071 258.429C470.196 256.554 467.652 255.5 465 255.5H278C273.757 255.5 269.687 253.814 266.686 250.814C263.686 247.813 262 243.743 262 239.5V0.5H459C470.935 0.5 482.381 5.24107 490.82 13.6802C499.259 22.1193 504 33.5653 504 45.5Z" fill="#F80759"/>
</svg>
